# Blender 3.6.0
# www.blender.org
mtllib 20231207_1950front_camera_up.mtl
o mujoco_front_camera
v 0.417823 0.033470 0.060574
v 0.424611 0.033470 0.067362
v 0.416373 0.032921 0.059124
v 0.417115 0.033470 0.061281
v 0.423904 0.033470 0.068069
v 0.415666 0.032921 0.059831
v 0.414605 0.031420 0.058770
v 0.415312 0.031420 0.058063
v 0.414216 0.029370 0.058382
v 0.414923 0.029370 0.057675
v 0.414216 -0.029230 0.058382
v 0.414605 -0.031280 0.058770
v 0.414923 -0.029230 0.057675
v 0.415312 -0.031280 0.058063
v 0.416373 -0.032781 0.059124
v 0.415666 -0.032781 0.059831
v 0.417823 -0.033330 0.060574
v 0.424611 -0.033330 0.067362
v 0.417115 -0.033330 0.061281
v 0.423904 -0.033330 0.068069
v 0.425353 -0.032781 0.069519
v 0.426060 -0.032781 0.068812
v 0.426414 -0.031280 0.070580
v 0.426803 -0.029230 0.070968
v 0.427122 -0.031280 0.069873
v 0.427510 -0.029230 0.070261
v 0.427510 0.029370 0.070261
v 0.427122 0.031420 0.069873
v 0.426803 0.029370 0.070968
v 0.426414 0.031420 0.070580
v 0.425353 0.032921 0.069519
v 0.426060 0.032921 0.068812
vn -0.0000 1.0000 -0.0000
vn 0.7071 -0.0000 -0.7071
vn -0.3535 0.8660 -0.3536
vn -0.7071 -0.0000 0.7071
vn -0.6124 0.4999 -0.6124
vn -0.6124 0.5000 -0.6124
vn -0.7071 -0.0000 -0.7071
vn -0.6124 -0.4999 -0.6124
vn -0.6124 -0.5000 -0.6124
vn -0.3535 -0.8660 -0.3536
vn -0.0000 -1.0000 -0.0000
vn 0.0001 -1.0000 -0.0000
vn 0.3535 -0.8660 0.3536
vn 0.3534 -0.8660 0.3536
vn 0.6124 -0.5000 0.6124
vn 0.6125 -0.5001 0.6122
vn 0.7070 -0.0000 0.7072
vn 0.7071 -0.0000 0.7071
vn 0.6124 0.5000 0.6124
vn 0.3535 0.8660 0.3537
vn 0.3534 0.8660 0.3536
vt 0.000000 0.000000
vt 1.000000 0.000000
vt 1.000000 1.000000
vt 0.000000 1.000000
vt 0.230337 0.000000
vt 0.769663 0.000000
vt 0.884829 0.008223
vt 0.969140 0.030688
vt 1.000000 0.061377
vt 1.000000 0.938623
vt 0.969143 0.969310
vt 0.884833 0.991777
vt 0.769663 1.000000
vt 0.230337 1.000000
vt 0.115171 0.991777
vt 0.030860 0.969312
vt 0.000000 0.938623
vt 0.000000 0.061377
vt 0.030857 0.030690
vt 0.115167 0.008223
vt 0.658920 1.000000
vt 0.658920 0.000000
vt 0.341083 1.000000
vt 0.341083 0.000000
vt 0.000022 0.000000
vt 0.000022 1.000000
vt 0.341082 1.000000
vt 0.341082 0.000000
vt 0.000012 0.000000
vt 0.000012 1.000000
s 1
usemtl æè´¨.017
f 4/1/1 5/2/1 2/3/1 1/4/1
f 1/5/2 2/6/2 32/7/2 28/8/2 27/9/2 26/10/2 25/11/2 22/12/2 18/13/2 17/14/2 15/15/2 14/16/2 13/17/2 10/18/2 8/19/2 3/20/2
f 6/21/3 4/3/1 1/2/1 3/22/3
f 20/13/4 21/12/4 23/11/4 24/10/4 29/9/4 30/8/4 31/7/4 5/6/4 4/5/4 6/20/4 7/19/4 9/18/4 11/17/4 12/16/4 16/15/4 19/14/4
f 7/23/5 6/21/3 3/22/3 8/24/6
f 8/24/6 10/25/7 9/26/7 7/23/5
f 11/1/7 9/2/7 10/3/7 13/4/7
f 12/21/8 11/3/7 13/2/7 14/22/9
f 16/27/10 12/21/8 14/22/9 15/28/10
f 15/28/10 17/29/11 19/30/12 16/27/10
f 20/1/11 19/2/12 17/3/11 18/4/11
f 21/21/13 20/3/11 18/2/11 22/22/14
f 23/23/15 21/21/13 22/22/14 25/24/16
f 25/24/16 26/25/17 24/26/18 23/23/15
f 26/3/17 27/4/18 29/1/17 24/2/18
f 30/21/19 29/3/17 27/2/18 28/22/19
f 31/27/20 30/21/19 28/22/19 32/28/21
f 32/28/21 2/29/1 5/30/1 31/27/20
