# Blender 3.6.0
# www.blender.org
mtllib mujocolidar2.mtl
o mujoco_lidar1
v -0.040416 0.012739 0.008240
v -0.035499 0.024610 0.008240
v -0.040793 0.012840 -0.014093
v -0.042094 0.000000 0.008240
v -0.040040 0.012638 0.030574
v -0.035162 0.024415 0.030574
v -0.041704 0.000000 0.030574
v -0.040040 -0.012638 0.030574
v -0.035162 -0.024415 0.030574
v -0.040417 -0.012738 0.008240
v -0.035500 -0.024610 0.008240
v -0.040793 -0.012839 -0.014093
v -0.041170 -0.012941 -0.036426
v -0.035837 -0.024805 -0.014093
v -0.042483 0.000000 -0.014093
v -0.042873 0.000000 -0.036426
v -0.041170 0.012941 -0.036426
v -0.036175 0.025000 -0.036426
v -0.035837 0.024805 -0.014093
v -0.028229 0.035355 -0.036426
v -0.027953 0.035080 -0.014093
v -0.017873 0.043301 -0.036426
v -0.017678 0.042964 -0.014093
v -0.005814 0.048296 -0.036426
v -0.005713 0.047920 -0.014093
v 0.007127 0.050000 -0.036426
v 0.007127 0.049610 -0.014093
v 0.020068 0.048296 -0.036426
v 0.019967 0.047920 -0.014093
v 0.032127 0.043301 -0.036426
v 0.031932 0.042964 -0.014093
v 0.042482 0.035355 -0.036426
v 0.042206 0.035080 -0.014093
v 0.050428 0.025000 -0.036426
v 0.050090 0.024805 -0.014093
v 0.055423 0.012941 -0.036426
v 0.055047 0.012840 -0.014093
v 0.057127 0.000000 -0.036426
v 0.056737 0.000000 -0.014093
v 0.055423 -0.012941 -0.036426
v 0.050428 -0.025000 -0.036426
v 0.055047 -0.012840 -0.014093
v 0.050090 -0.024805 -0.014093
v 0.054670 -0.012739 0.008240
v 0.054293 -0.012639 0.030574
v 0.056347 0.000000 0.008240
v 0.049753 -0.024610 0.008240
v 0.041931 -0.034804 0.008240
v 0.049415 -0.024415 0.030574
v 0.041655 -0.034529 0.030574
v 0.031542 -0.042289 0.030574
v 0.019765 -0.047167 0.030574
v 0.031737 -0.042626 0.008240
v 0.019866 -0.047543 0.008240
v 0.031932 -0.042964 -0.014093
v 0.032127 -0.043301 -0.036426
v 0.019966 -0.047920 -0.014093
v 0.042206 -0.035080 -0.014093
v 0.042482 -0.035355 -0.036426
v 0.020068 -0.048296 -0.036426
v 0.007126 -0.049610 -0.014093
v 0.007126 -0.050000 -0.036426
v -0.005714 -0.047920 -0.014093
v 0.007126 -0.049220 0.008240
v -0.005613 -0.047543 0.008240
v 0.007126 -0.048831 0.030574
v -0.005512 -0.047167 0.030574
v -0.017289 -0.042288 0.030574
v -0.027402 -0.034528 0.030574
v -0.017484 -0.042626 0.008240
v -0.027678 -0.034804 0.008240
v -0.017679 -0.042963 -0.014093
v -0.017874 -0.043301 -0.036426
v -0.027953 -0.035079 -0.014093
v -0.028229 -0.035355 -0.036426
v -0.036175 -0.025000 -0.036426
v -0.005815 -0.048296 -0.036426
v 0.054670 0.012739 0.008240
v 0.055957 0.000000 0.030574
v 0.054293 0.012638 0.030574
v 0.049415 0.024415 0.030574
v 0.041655 0.034528 0.030574
v 0.049753 0.024610 0.008240
v 0.041931 0.034804 0.008240
v 0.031737 0.042626 0.008240
v 0.019866 0.047543 0.008240
v 0.031542 0.042288 0.030574
v 0.019765 0.047167 0.030574
v 0.007127 0.048831 0.030574
v -0.005512 0.047167 0.030574
v 0.007127 0.049220 0.008240
v -0.005612 0.047543 0.008240
v -0.017483 0.042626 0.008240
v -0.027677 0.034804 0.008240
v -0.017289 0.042288 0.030574
v -0.027402 0.034528 0.030574
vn -0.9658 0.2588 0.0174
vn -0.8659 0.4999 0.0174
vn -0.8659 0.4999 0.0175
vn -0.9658 0.2588 0.0175
vn -0.9998 -0.0000 0.0175
vn -0.9998 -0.0000 0.0174
vn -0.0000 -0.0000 1.0000
vn -0.9658 -0.2588 0.0174
vn -0.9658 -0.2588 0.0175
vn -0.8659 -0.4999 0.0174
vn -0.8659 -0.4999 0.0175
vn -0.0000 -0.0000 -1.0000
vn -0.7070 0.7070 0.0174
vn -0.7070 0.7070 0.0175
vn -0.4999 0.8659 0.0174
vn -0.4999 0.8659 0.0175
vn -0.2588 0.9658 0.0174
vn -0.2588 0.9658 0.0175
vn -0.0000 0.9998 0.0174
vn -0.0000 0.9998 0.0175
vn 0.2588 0.9658 0.0174
vn 0.2588 0.9658 0.0175
vn 0.4999 0.8659 0.0174
vn 0.7070 0.7070 0.0174
vn 0.8659 0.4999 0.0175
vn 0.8659 0.4999 0.0174
vn 0.9658 0.2588 0.0174
vn 0.9658 0.2588 0.0175
vn 0.9998 -0.0000 0.0175
vn 0.9998 -0.0000 0.0174
vn 0.9658 -0.2588 0.0175
vn 0.9658 -0.2588 0.0174
vn 0.8659 -0.4999 0.0174
vn 0.8659 -0.4999 0.0175
vn 0.7070 -0.7070 0.0174
vn 0.4999 -0.8659 0.0174
vn 0.2588 -0.9658 0.0174
vn 0.2588 -0.9658 0.0175
vn -0.0000 -0.9998 0.0175
vn -0.0000 -0.9998 0.0174
vn -0.2588 -0.9658 0.0175
vn -0.2588 -0.9658 0.0174
vn -0.4999 -0.8659 0.0174
vn -0.4999 -0.8659 0.0175
vn -0.7070 -0.7070 0.0174
vn -0.7070 -0.7070 0.0175
vn 0.7070 0.7070 0.0175
vn 0.4999 0.8659 0.0175
vt 0.088278 0.000000
vt 0.170540 0.000000
vt 0.170540 0.333333
vt 0.088278 0.333333
vt 0.170540 0.666667
vt 0.088278 0.666667
vt 0.000000 0.666667
vt 0.000000 0.333333
vt 0.000000 0.000000
vt 0.000000 0.500000
vt 0.017035 0.370597
vt 0.066984 0.250005
vt 0.146443 0.146450
vt 0.249996 0.066990
vt 0.370587 0.017038
vt 0.499996 0.000000
vt 0.629406 0.017036
vt 0.749998 0.066986
vt 0.853552 0.146445
vt 0.933012 0.249999
vt 0.982963 0.370590
vt 1.000000 0.500000
vt 0.982963 0.629409
vt 0.933013 0.750000
vt 0.853553 0.853553
vt 0.750000 0.933013
vt 0.629409 0.982963
vt 0.500000 1.000000
vt 0.370591 0.982963
vt 0.250000 0.933013
vt 0.146447 0.853553
vt 0.066987 0.750000
vt 0.017037 0.629409
vt 0.000005 0.000000
vt 0.000005 0.333333
vt 0.170541 0.333333
vt 0.170541 0.000000
vt 0.000005 0.666667
vt 0.170541 0.666667
vt 0.088278 1.000000
vt 0.170541 1.000000
vt 0.000005 1.000000
vt 0.000000 1.000000
vt 0.170540 1.000000
vt 0.250000 1.000000
vt 0.250000 0.666667
vt 0.329459 1.000000
vt 0.329459 0.666667
vt 0.411722 1.000000
vt 0.411722 0.666667
vt 0.500000 0.666667
vt 0.588278 1.000000
vt 0.588278 0.666667
vt 0.670541 1.000000
vt 0.670541 0.666667
vt 0.750000 1.000000
vt 0.750000 0.666667
vt 0.829459 1.000000
vt 0.829459 0.666667
vt 0.911722 1.000000
vt 0.911722 0.666667
vt 1.000000 0.666667
vt 1.000000 1.000000
vt 0.829460 0.666667
vt 0.829460 1.000000
vt 0.911722 0.333333
vt 1.000000 0.333333
vt 0.829460 0.333333
vt 0.911722 0.000000
vt 0.829460 0.000000
vt 1.000000 0.000000
vt 0.750000 0.333333
vt 0.750000 0.000000
vt 0.670541 0.333333
vt 0.670541 0.000000
vt 0.588278 0.333333
vt 0.588278 0.000000
vt 0.500000 0.333333
vt 0.411722 0.333333
vt 0.500000 0.000000
vt 0.411722 0.000000
vt 0.329460 0.333333
vt 0.329460 0.000000
vt 0.250001 0.333333
vt 0.250001 0.000000
vt 0.250001 0.666667
vt 0.329460 0.666667
vt 0.329460 1.000000
vt 0.250001 1.000000
vt 0.829459 0.000000
vt 0.829459 0.333333
vt 0.329459 0.333333
vt 0.329459 0.000000
vt 0.250000 0.000000
vt 0.250000 0.333333
s 1
usemtl æè´¨.028
f 5/1/1 6/2/2 2/3/3 1/4/1
f 1/4/1 2/3/3 19/5/3 3/6/4
f 15/7/5 4/8/6 1/4/1 3/6/4
f 4/8/6 7/9/5 5/1/1 1/4/1
f 7/10/7 8/11/7 9/12/7 69/13/7 68/14/7 67/15/7 66/16/7 52/17/7 51/18/7 50/19/7 49/20/7 45/21/7 79/22/7 80/23/7 81/24/7 82/25/7 87/26/7 88/27/7 89/28/7 90/29/7 95/30/7 96/31/7 6/32/7 5/33/7
f 10/4/8 8/1/9 7/34/5 4/35/6
f 10/4/8 11/36/10 9/37/11 8/1/9
f 12/6/9 10/4/8 4/35/6 15/38/5
f 12/6/9 14/39/11 11/36/10 10/4/8
f 14/39/11 12/6/9 13/40/9 76/41/11
f 12/6/9 15/38/5 16/42/5 13/40/9
f 17/40/4 16/43/5 15/7/5 3/6/4
f 38/22/12 40/21/12 41/20/12 59/19/12 56/18/12 60/17/12 62/16/12 77/15/12 73/14/12 75/13/12 76/12/12 13/11/12 16/10/12 17/33/12 18/32/12 20/31/12 22/30/12 24/29/12 26/28/12 28/27/12 30/26/12 32/25/12 34/24/12 36/23/12
f 18/44/3 17/40/4 3/6/4 19/5/3
f 20/45/13 18/44/3 19/5/3 21/46/14
f 22/47/15 20/45/13 21/46/14 23/48/16
f 24/49/17 22/47/15 23/48/16 25/50/18
f 26/28/19 24/49/17 25/50/18 27/51/20
f 28/52/21 26/28/19 27/51/20 29/53/22
f 30/54/23 28/52/21 29/53/22 31/55/23
f 32/56/24 30/54/23 31/55/23 33/57/24
f 34/58/25 32/56/24 33/57/24 35/59/26
f 36/60/27 34/58/25 35/59/26 37/61/28
f 39/62/29 38/63/30 36/60/27 37/61/28
f 42/61/31 40/60/32 38/63/30 39/62/29
f 42/61/31 43/64/33 41/65/34 40/60/32
f 44/66/31 42/61/31 39/62/29 46/67/29
f 43/64/33 42/61/31 44/66/31 47/68/34
f 47/68/34 44/66/31 45/69/31 49/70/34
f 44/66/31 46/67/29 79/71/29 45/69/31
f 58/57/35 43/64/33 47/68/34 48/72/35
f 48/72/35 47/68/34 49/70/34 50/73/35
f 53/74/36 48/72/35 50/73/35 51/75/36
f 54/76/37 53/74/36 51/75/36 52/77/37
f 57/53/38 55/55/36 53/74/36 54/76/37
f 55/55/36 58/57/35 48/72/35 53/74/36
f 58/57/35 55/55/36 56/54/36 59/56/35
f 55/55/36 57/53/38 60/52/37 56/54/36
f 43/64/33 58/57/35 59/56/35 41/65/34
f 61/51/39 57/53/38 54/76/37 64/78/40
f 57/53/38 61/51/39 62/28/40 60/52/37
f 61/51/39 63/50/41 77/49/42 62/28/40
f 63/50/41 61/51/39 64/78/40 65/79/42
f 65/79/42 64/78/40 66/80/40 67/81/42
f 64/78/40 54/76/37 52/77/37 66/80/40
f 70/82/43 65/79/42 67/81/42 68/83/44
f 71/84/45 70/82/43 68/83/44 69/85/46
f 74/86/45 72/87/43 70/82/43 71/84/45
f 72/87/43 63/50/41 65/79/42 70/82/43
f 63/50/41 72/87/43 73/88/44 77/49/42
f 72/87/43 74/86/45 75/89/46 73/88/44
f 14/39/11 74/86/45 71/84/45 11/36/10
f 74/86/45 14/39/11 76/41/11 75/89/46
f 11/36/10 71/84/45 69/85/46 9/37/11
f 80/69/28 79/71/29 46/67/29 78/66/28
f 46/67/29 39/62/29 37/61/28 78/66/28
f 81/90/25 80/69/28 78/66/28 83/91/25
f 82/73/47 81/90/25 83/91/25 84/72/47
f 84/72/47 83/91/25 35/59/26 33/57/24
f 83/91/25 78/66/28 37/61/28 35/59/26
f 85/74/48 84/72/47 33/57/24 31/55/23
f 87/75/48 82/73/47 84/72/47 85/74/48
f 88/77/21 87/75/48 85/74/48 86/76/22
f 86/76/22 85/74/48 31/55/23 29/53/22
f 89/80/19 88/77/21 86/76/22 91/78/19
f 90/81/17 89/80/19 91/78/19 92/79/17
f 92/79/17 91/78/19 27/51/20 25/50/18
f 91/78/19 86/76/22 29/53/22 27/51/20
f 93/92/16 92/79/17 25/50/18 23/48/16
f 95/93/15 90/81/17 92/79/17 93/92/16
f 96/94/13 95/93/15 93/92/16 94/95/14
f 94/95/14 93/92/16 23/48/16 21/46/14
f 6/2/2 96/94/13 94/95/14 2/3/3
f 2/3/3 94/95/14 21/46/14 19/5/3
